<svg width="24" height="24" viewBox="0 0 24 24" fill="none" xmlns="http://www.w3.org/2000/svg">
<path fill-rule="evenodd" clip-rule="evenodd" d="M13 3H21V7H13V3ZM11 5H3V9H11V5ZM13 17H21V21H13V17ZM11 19H3V23H11V19ZM13 10H21V14H13V10ZM11 12H3V16H11V12ZM15 7V17H17V7H15Z" fill="#00BFFF"/>
<path fill-rule="evenodd" clip-rule="evenodd" d="M17 10C17 11.1046 16.1046 12 15 12C13.8954 12 13 11.1046 13 10C13 8.89543 13.8954 8 15 8C16.1046 8 17 8.89543 17 10Z" fill="#00BFFF"/>
<path fill-rule="evenodd" clip-rule="evenodd" d="M7 7C7 8.10457 6.10457 9 5 9C3.89543 9 3 8.10457 3 7C3 5.89543 3.89543 5 5 5C6.10457 5 7 5.89543 7 7Z" fill="#00BFFF"/>
<path fill-rule="evenodd" clip-rule="evenodd" d="M7 15C7 16.1046 6.10457 17 5 17C3.89543 17 3 16.1046 3 15C3 13.8954 3.89543 13 5 13C6.10457 13 7 13.8954 7 15Z" fill="#00BFFF"/>
<path fill-rule="evenodd" clip-rule="evenodd" d="M17 18C17 19.1046 16.1046 20 15 20C13.8954 20 13 19.1046 13 18C13 16.8954 13.8954 16 15 16C16.1046 16 17 16.8954 17 18Z" fill="#00BFFF"/>
</svg>